<?xml version="1.0" encoding="UTF-8" standalone="no"?>
<!-- Created with Inkscape (http://www.inkscape.org/) -->

<svg
   width="100mm"
   height="100mm"
   viewBox="0 0 100 100"
   version="1.1"
   id="svg1"
   xmlns="http://www.w3.org/2000/svg"
   xmlns:svg="http://www.w3.org/2000/svg">
  <defs
     id="defs1" />
  <g
     id="layer1">
    <path
       style="fill:#222222;fill-opacity:1;stroke:none;stroke-width:0.3175;stroke-opacity:1"
       d="m 18.868078,18.6461 c -4.136959,6.29394 -8.43514,1.997797 -7.547231,22.863671 0.88791,20.865875 7.991187,27.303219 7.991187,39.955932 0,12.652711 6.881299,19.312027 13.984575,17.98017 C 40.399885,98.114006 65.483332,88.790958 78.801975,91.454685 92.120619,94.118414 94.562368,76.582199 94.118413,71.254742 93.674461,65.927285 81.68768,52.608642 80.577793,44.395478 79.467908,36.182314 92.728002,28.43839 89.012934,19.755988 83.531311,6.9450069 68.812993,2.8857062 60.377852,7.325254 51.94271,11.764802 39.06802,3.3296609 32.630676,3.9955931 26.193333,4.6615252 23.005038,12.352161 18.868078,18.6461 Z"
       id="path7" />
    <path
       id="path1"
       style="fill:#720c17;fill:#000000;fill-opacity:1;stroke:#000000;stroke-width:0.3175"
       d="m 72.53304,10.009725 -49.612475,11.460282 3.626652,65.714852 55.264345,-8.744165 -55.138771,8.791191 -0.06666,1.455725 0.655774,0.690914 54.254569,-3.916557 0.870748,-1.740979 -0.553454,-5.318538 0.419096,-0.06666 0.435115,-1.595768 L 73.25858,11.02517 Z" />
    <path
       style="fill:#eeeeee;fill-opacity:1;stroke:#000000;stroke-width:0.3175"
       d="m 27.207477,87.350318 0.171836,1.431973 54.13236,-4.42416 -0.03751,-3.744418 -0.02332,-2.050635 z"
       id="path5" />
    <text
       xml:space="preserve"
       style="font-weight:bold;font-size:7.76111px;line-height:0.9;font-family:Sans;-inkscape-font-specification:'Sans, Bold';text-align:center;writing-mode:lr-tb;direction:ltr;text-anchor:middle;fill:#ffffff;fill-opacity:1;stroke:#000000;stroke-width:0.3175"
       x="40.682606"
       y="38.591042"
       id="text5"
       transform="rotate(-11.2)"><tspan
         id="tspan5"
         style="font-style:normal;font-variant:normal;font-weight:normal;font-stretch:normal;font-size:7.76111px;line-height:0.9;font-family:Luminari;-inkscape-font-specification:'Luminari, Normal';font-variant-ligatures:normal;font-variant-caps:normal;font-variant-numeric:normal;font-variant-east-asian:normal;stroke:none;stroke-width:0.3175;stroke-opacity:1"
         x="40.682606"
         y="38.591042">Books </tspan><tspan
         style="font-style:normal;font-variant:normal;font-weight:normal;font-stretch:normal;font-size:7.76111px;line-height:0.9;font-family:Luminari;-inkscape-font-specification:'Luminari, Normal';font-variant-ligatures:normal;font-variant-caps:normal;font-variant-numeric:normal;font-variant-east-asian:normal;stroke:none;stroke-width:0.3175;stroke-opacity:1"
         x="40.682606"
         y="45.988934"
         id="tspan7">&amp; </tspan><tspan
         style="font-style:normal;font-variant:normal;font-weight:normal;font-stretch:normal;font-size:7.76111px;line-height:0.9;font-family:Luminari;-inkscape-font-specification:'Luminari, Normal';font-variant-ligatures:normal;font-variant-caps:normal;font-variant-numeric:normal;font-variant-east-asian:normal;stroke:none;stroke-width:0.3175;stroke-opacity:1"
         x="40.682606"
         y="53.386826"
         id="tspan6">Scones</tspan></text>
  </g>
  <g
     id="g4"
     style="display:none">
    <path
       style="fill:#3a3a3a;fill-opacity:0;stroke:#000000;stroke-width:0.3175"
       d="M 26.547156,87.184919 82.25266,78.335866 82.68786,76.740138 73.258541,11.025048 72.53321,10.009583 22.920495,21.46983 Z"
       id="path3" />
    <path
       style="fill:#3a3a3a;fill-opacity:0;stroke:#000000;stroke-width:0.3175"
       d="m 81.833452,78.396613 0.553639,5.324437 -0.8704,1.740797 -54.25484,3.916794 -0.655492,-0.690778 0.06618,-1.456069"
       id="path4" />
  </g>
</svg>
