<svg width="104" height="151" viewBox="0 0 104 151" fill="none" xmlns="http://www.w3.org/2000/svg">
<path d="M12.8605 104.946L17.6047 127.957L24.7209 140.653L39.7442 150.175H62.6744L69 144.621L85.6047 127.957L90.3488 116.849L92.1938 100.185M12.8605 104.946L9.69767 82.7288V70.0331M12.8605 104.946L9.69767 102.566L4.95349 89.0767L1 75.5875L2.5814 67.6526L6.53488 65.2722L9.69767 70.0331M97.4651 65.2722L99.8372 48.609L97.4651 32.7393L87.9767 18.4566L72.1628 5.7609L58.7209 1H42.1163L25.5116 10.5218L16.0233 18.4566L9.69767 28.7719L6.53488 40.6742L7.32558 55.7504M97.4651 65.2722H99.8372L103 67.6526V82.7288L99.8372 91.4571L97.4651 95.4246L92.1938 100.185M97.4651 65.2722L96.551 66.954M92.1938 100.185L92.7209 95.4246L95.093 77.1744L94.3023 73.207L96.551 66.954M9.69767 70.0331V65.2722L8.11628 60.5113L7.32558 55.7504M74.5349 74.794L69 74.0005L65.0465 71.62L69 67.6526H75.3256L83.2326 71.62L77.6977 74.0005L74.5349 74.794ZM74.5349 74.794L72.1628 74.0005L70.5814 71.62L71.3721 68.4461M74.5349 74.794L76.907 73.207L78.4884 70.8266L77.6977 69.2396M7.32558 55.7504L9.69767 43.8481L19.186 25.598L39.7442 16.8697L47.6512 20.8371H50.0233L58.7209 18.4566L81.6512 20.8371L87.186 25.598L92.1938 45.4351L95.093 50.9895L96.551 66.954M55.5581 67.6526V87.4897L58.7209 89.8702L61.8837 91.4571L65.0465 93.8376V97.0115L64.2558 100.979L61.8837 102.566L58.7209 103.359L55.5581 101.772L53.9767 103.359H50.0233L46.8605 101.772L44.4884 103.359H40.5349L37.3721 100.979V97.0115L40.5349 92.2506M69.7907 116.055L61.8837 123.99L56.3488 127.957H45.2791L38.1628 123.196L32.6279 116.849H35M69.7907 116.055L57.9302 112.881L51.6047 116.055L45.2791 112.881L35 116.849M69.7907 116.055L59.5116 117.642L52.3954 119.229L42.907 118.436L35 116.849M34.2093 68.4461L38.9535 71.62L38.1628 72.4135L30.2558 74.794H25.5116L20.7674 71.62L23.9302 69.2396L26.3023 68.8429M34.2093 68.4461H28.6744L26.3023 68.8429M34.2093 68.4461V71.62L31.8372 74.0005H28.6744L26.3023 71.62V68.8429M73.7442 111.294L75.3256 114.468L74.5349 118.436M28.6744 119.229L27.093 114.468L30.2558 111.294M12.8605 62.0982L20.7674 55.7504L37.3721 58.9243L39.7442 62.0982H30.2558L21.5581 60.5113L12.8605 62.0982ZM68.2093 62.0982L66.6279 58.9243L83.2326 55.7504L92.1938 60.5113H83.2326H75.3256L68.2093 62.0982Z" stroke="white"/>
</svg>
