<svg width="78" height="13" viewBox="0 0 78 13" fill="none" xmlns="http://www.w3.org/2000/svg">
    <path
        d="M6.53951 12.5L5.59128 11.6368C2.22343 8.58283 0 6.56213 0 4.09673C0 2.07602 1.58256 0.5 3.59673 0.5C4.73461 0.5 5.8267 1.0297 6.53951 1.86022C7.25232 1.0297 8.34441 0.5 9.48229 0.5C11.4965 0.5 13.079 2.07602 13.079 4.09673C13.079 6.56213 10.8556 8.58283 7.48774 11.6368L6.53951 12.5Z"
        fill="white" />
    <path
        d="M22.5395 12.5L21.5913 11.6368C18.2234 8.58283 16 6.56213 16 4.09673C16 2.07602 17.5826 0.5 19.5967 0.5C20.7346 0.5 21.8267 1.0297 22.5395 1.86022C23.2523 1.0297 24.3444 0.5 25.4823 0.5C27.4965 0.5 29.079 2.07602 29.079 4.09673C29.079 6.56213 26.8556 8.58283 23.4877 11.6368L22.5395 12.5Z"
        fill="white" />
    <path
        d="M38.5395 12.5L37.5913 11.6368C34.2234 8.58283 32 6.56213 32 4.09673C32 2.07602 33.5826 0.5 35.5967 0.5C36.7346 0.5 37.8267 1.0297 38.5395 1.86022C39.2523 1.0297 40.3444 0.5 41.4823 0.5C43.4965 0.5 45.079 2.07602 45.079 4.09673C45.079 6.56213 42.8556 8.58283 39.4877 11.6368L38.5395 12.5Z"
        fill="white" />
    <path
        d="M54.5395 12.5L53.5913 11.6368C50.2234 8.58283 48 6.56213 48 4.09673C48 2.07602 49.5826 0.5 51.5967 0.5C52.7346 0.5 53.8267 1.0297 54.5395 1.86022C55.2523 1.0297 56.3444 0.5 57.4823 0.5C59.4965 0.5 61.079 2.07602 61.079 4.09673C61.079 6.56213 58.8556 8.58283 55.4877 11.6368L54.5395 12.5Z"
        fill="white" />
    <path
        d="M70.5395 12.5L69.5913 11.6368C66.2234 8.58283 64 6.56213 64 4.09673C64 2.07602 65.5826 0.5 67.5967 0.5C68.7346 0.5 69.8267 1.0297 70.5395 1.86022C71.2523 1.0297 72.3444 0.5 73.4823 0.5C75.4965 0.5 77.079 2.07602 77.079 4.09673C77.079 6.56213 74.8556 8.58283 71.4877 11.6368L70.5395 12.5Z"
        fill="white" />
</svg>