<svg width="42" height="42" viewBox="0 0 42 42" fill="none" xmlns="http://www.w3.org/2000/svg">
    <title>
        Planet subtituting the O in home
    </title>
    <path
        d="M33.39 32.319C32.844 30.639 31.269 29.4 29.4 29.4H27.3V23.1C27.3 22.543 27.0787 22.0089 26.6849 21.6151C26.2911 21.2212 25.757 21 25.2 21H12.6V16.8H16.8C17.357 16.8 17.8911 16.5787 18.2849 16.1849C18.6787 15.7911 18.9 15.257 18.9 14.7V10.5H23.1C24.2139 10.5 25.2822 10.0575 26.0698 9.26985C26.8575 8.4822 27.3 7.41391 27.3 6.3V5.439C33.453 7.917 37.8 13.944 37.8 21C37.8 25.368 36.12 29.337 33.39 32.319ZM18.9 37.653C10.605 36.624 4.2 29.568 4.2 21C4.2 19.698 4.368 18.438 4.641 17.241L14.7 27.3V29.4C14.7 30.5139 15.1425 31.5822 15.9302 32.3698C16.7178 33.1575 17.7861 33.6 18.9 33.6M21 0C18.2422 0 15.5115 0.543181 12.9636 1.59853C10.4158 2.65388 8.10079 4.20073 6.15076 6.15076C2.21249 10.089 0 15.4305 0 21C0 26.5695 2.21249 31.911 6.15076 35.8492C8.10079 37.7993 10.4158 39.3461 12.9636 40.4015C15.5115 41.4568 18.2422 42 21 42C26.5695 42 31.911 39.7875 35.8492 35.8492C39.7875 31.911 42 26.5695 42 21C42 18.2422 41.4568 15.5115 40.4015 12.9636C39.3461 10.4158 37.7993 8.10079 35.8492 6.15076C33.8992 4.20073 31.5842 2.65388 29.0364 1.59853C26.4885 0.543181 23.7578 0 21 0Z"
        fill="#FF5E5E" />
</svg>