<svg width="66" height="96" viewBox="0 0 66 96" fill="none" xmlns="http://www.w3.org/2000/svg">
<path d="M47.5 43.5L49.5 44L50 45L49 46.5L48 47H46.5L45.5 46.5L45 45.5L46 44L47.5 43.5ZM47.5 43.5L53 45L49.5 47L47.5 47.5H46.5L44 47L41.5 45.5L44 44L47.5 43.5ZM18.5 44L18 45.5L19.5 47H21.5L23 45.5V44M18.5 44H23M18.5 44H17.5L14.5 45.5L17.5 47.5H19.5H20.5L23.5 46.5L25.5 46L26 45.5L23 44" stroke="#FF5E5E"/>
<path d="M8.5 66.5L11.5 81L16 89L25.5 95H40L44 91.5L54.5 81L57.5 74L58.6667 63.5M8.5 66.5L6.5 52.5V44.5M8.5 66.5L6.5 65L3.5 56.5L1 48L2 43L4.5 41.5L6.5 44.5M62 41.5L63.5 31L62 21L56 12L46 4L37.5 1H27L16.5 7L10.5 12L6.5 18.5L4.5 26L5 35.5M62 41.5H63.5L65.5 43V52.5L63.5 58L62 60.5L58.6667 63.5M62 41.5L61.422 42.5598M58.6667 63.5L59 60.5L60.5 49L60 46.5L61.422 42.5598M6.5 44.5V41.5L5.5 38.5L5 35.5M5 35.5L6.5 28L12.5 16.5L25.5 11L30.5 13.5H32L37.5 12L52 13.5L55.5 16.5L58.6667 29L60.5 32.5L61.422 42.5598M35.5 43V55.5L37.5 57L39.5 58L41.5 59.5V61.5L41 64L39.5 65L37.5 65.5L35.5 64.5L34.5 65.5H32L30 64.5L28.5 65.5H26L24 64V61.5L26 58.5M44 75L39.5 77.5L35.5 79.5H29L24.5 77L21 76L22.5 75.5M44 75L37 71.5L33 73.5L29 71.5L22.5 75.5M44 75H37.5L33 76L27.5 75.5H22.5M10 38.5L17.5 36.5H24L30 39.5L27.5 41.5L21.5 39.5L15.5 39L10 38.5ZM39.5 42.5L38 39.5L43 37.5L49 36.5L57.5 39.5H50L44 40.5L39.5 42.5Z" stroke="white"/>
</svg>
