<svg width="78" height="13" viewBox="0 0 78 13" fill="none" xmlns="http://www.w3.org/2000/svg">
    <path
        d="M70.5395 12.5L69.5913 11.6368C66.2234 8.58283 64 6.56213 64 4.09673C64 2.07602 65.5826 0.5 67.5967 0.5C68.0349 0.5 68.4599 0.578474 68.8654 0.715804L71.1935 4.65259L68.5777 7.92234L70.5395 12.5ZM73.4823 0.5C75.4965 0.5 77.079 2.07602 77.079 4.09673C77.079 6.56213 74.8556 8.58283 71.4877 11.6368L70.5395 12.5L69.8856 7.92234L72.8283 4.65259L71.0954 1.33052C71.7624 0.807357 72.6125 0.5 73.4823 0.5Z"
        fill="#FF5E5E" />
    <path
        d="M54.5395 12.5L53.5913 11.6368C50.2234 8.58283 48 6.56213 48 4.09673C48 2.07602 49.5826 0.5 51.5967 0.5C52.0349 0.5 52.4599 0.578474 52.8654 0.715804L55.1935 4.65259L52.5777 7.92234L54.5395 12.5ZM57.4823 0.5C59.4965 0.5 61.079 2.07602 61.079 4.09673C61.079 6.56213 58.8556 8.58283 55.4877 11.6368L54.5395 12.5L53.8856 7.92234L56.8283 4.65259L55.0954 1.33052C55.7624 0.807357 56.6125 0.5 57.4823 0.5Z"
        fill="#FF5E5E" />
    <path
        d="M38.5395 12.5L37.5913 11.6368C34.2234 8.58283 32 6.56213 32 4.09673C32 2.07602 33.5826 0.5 35.5967 0.5C36.0349 0.5 36.4599 0.578474 36.8654 0.715804L39.1935 4.65259L36.5777 7.92234L38.5395 12.5ZM41.4823 0.5C43.4965 0.5 45.079 2.07602 45.079 4.09673C45.079 6.56213 42.8556 8.58283 39.4877 11.6368L38.5395 12.5L37.8856 7.92234L40.8283 4.65259L39.0954 1.33052C39.7624 0.807357 40.6125 0.5 41.4823 0.5Z"
        fill="#FF5E5E" />
    <path
        d="M22.5395 12.5L21.5913 11.6368C18.2234 8.58283 16 6.56213 16 4.09673C16 2.07602 17.5826 0.5 19.5967 0.5C20.0349 0.5 20.4599 0.578474 20.8654 0.715804L23.1935 4.65259L20.5777 7.92234L22.5395 12.5ZM25.4823 0.5C27.4965 0.5 29.079 2.07602 29.079 4.09673C29.079 6.56213 26.8556 8.58283 23.4877 11.6368L22.5395 12.5L21.8856 7.92234L24.8283 4.65259L23.0954 1.33052C23.7624 0.807357 24.6125 0.5 25.4823 0.5Z"
        fill="#FF5E5E" />
    <path
        d="M6.53951 12.5L5.59128 11.6368C2.22343 8.58283 0 6.56213 0 4.09673C0 2.07602 1.58256 0.5 3.59673 0.5C4.03488 0.5 4.45995 0.578474 4.8654 0.715804L7.19346 4.65259L4.57766 7.92234L6.53951 12.5ZM9.48229 0.5C11.4965 0.5 13.079 2.07602 13.079 4.09673C13.079 6.56213 10.8556 8.58283 7.48774 11.6368L6.53951 12.5L5.88556 7.92234L8.82834 4.65259L7.09537 1.33052C7.7624 0.807357 8.61254 0.5 9.48229 0.5Z"
        fill="#FF5E5E" />
</svg>