<svg width="322" height="428" viewBox="0 0 322 428" fill="none" xmlns="http://www.w3.org/2000/svg">
<path d="M89.5 1.00061C385.5 24 -24 45.4997 127 99C184.879 119.507 -19.0001 195.5 220 217M259.5 220.5C334 227 349 297.5 259.5 318C171.218 338.221 89.5 229.056 43 263.5C-8.60927 301.729 141 349 144.5 427" stroke="white" stroke-dasharray="6 4"/>
<circle cx="47.5" cy="284.5" r="2.5" fill="#D9D9D9"/>
<circle cx="58.5" cy="274.5" r="2.5" fill="#D9D9D9"/>
<path d="M5.88 326L0.96 323.06V322.34L5.88 319.4V320.336L1.92 322.7L5.88 325.064V326ZM10.7529 326.144C10.0249 326.144 9.33294 325.896 8.67694 325.4L8.58094 326H7.93294V317.48H8.79694V320.876C9.42094 320.436 10.0729 320.216 10.7529 320.216C11.5129 320.216 12.1129 320.484 12.5529 321.02C13.0009 321.556 13.2249 322.276 13.2249 323.18C13.2249 324.084 13.0009 324.804 12.5529 325.34C12.1129 325.876 11.5129 326.144 10.7529 326.144ZM10.6089 325.328C11.1529 325.328 11.5769 325.136 11.8809 324.752C12.1849 324.368 12.3369 323.844 12.3369 323.18C12.3369 322.516 12.1849 321.992 11.8809 321.608C11.5769 321.224 11.1529 321.032 10.6089 321.032C10.3129 321.032 10.0009 321.088 9.67294 321.2C9.35294 321.312 9.06094 321.468 8.79694 321.668V324.692C9.06094 324.892 9.35294 325.048 9.67294 325.16C10.0009 325.272 10.3129 325.328 10.6089 325.328ZM17.4019 326.144C16.8339 326.144 16.3339 326.02 15.9019 325.772C15.4699 325.524 15.1339 325.18 14.8939 324.74C14.6619 324.292 14.5459 323.772 14.5459 323.18C14.5459 322.588 14.6619 322.072 14.8939 321.632C15.1339 321.184 15.4699 320.836 15.9019 320.588C16.3339 320.34 16.8339 320.216 17.4019 320.216C17.9779 320.216 18.4779 320.34 18.9019 320.588C19.3339 320.836 19.6659 321.184 19.8979 321.632C20.1379 322.072 20.2579 322.588 20.2579 323.18C20.2579 323.772 20.1379 324.292 19.8979 324.74C19.6659 325.18 19.3339 325.524 18.9019 325.772C18.4779 326.02 17.9779 326.144 17.4019 326.144ZM17.4019 325.328C18.0179 325.328 18.4979 325.136 18.8419 324.752C19.1939 324.368 19.3699 323.844 19.3699 323.18C19.3699 322.516 19.1939 321.992 18.8419 321.608C18.4979 321.224 18.0179 321.032 17.4019 321.032C16.7939 321.032 16.3139 321.224 15.9619 321.608C15.6099 321.992 15.4339 322.516 15.4339 323.18C15.4339 323.844 15.6099 324.368 15.9619 324.752C16.3139 325.136 16.7939 325.328 17.4019 325.328ZM24.3628 326.144C23.7948 326.144 23.2948 326.02 22.8628 325.772C22.4308 325.524 22.0948 325.18 21.8548 324.74C21.6228 324.292 21.5068 323.772 21.5068 323.18C21.5068 322.588 21.6228 322.072 21.8548 321.632C22.0948 321.184 22.4308 320.836 22.8628 320.588C23.2948 320.34 23.7948 320.216 24.3628 320.216C24.9388 320.216 25.4388 320.34 25.8628 320.588C26.2948 320.836 26.6268 321.184 26.8588 321.632C27.0988 322.072 27.2188 322.588 27.2188 323.18C27.2188 323.772 27.0988 324.292 26.8588 324.74C26.6268 325.18 26.2948 325.524 25.8628 325.772C25.4388 326.02 24.9388 326.144 24.3628 326.144ZM24.3628 325.328C24.9788 325.328 25.4588 325.136 25.8028 324.752C26.1548 324.368 26.3308 323.844 26.3308 323.18C26.3308 322.516 26.1548 321.992 25.8028 321.608C25.4588 321.224 24.9788 321.032 24.3628 321.032C23.7548 321.032 23.2748 321.224 22.9228 321.608C22.5708 321.992 22.3948 322.516 22.3948 323.18C22.3948 323.844 22.5708 324.368 22.9228 324.752C23.2748 325.136 23.7548 325.328 24.3628 325.328ZM28.9238 326V325.064L32.8838 322.7L28.9238 320.336V319.4L33.8438 322.34V323.06L28.9238 326Z" fill="#FF5E5E"/>
</svg>
