<svg width="128" height="84" viewBox="0 0 128 84" fill="none" xmlns="http://www.w3.org/2000/svg">
<g clip-path="url(#clip0_1_90)">
<rect width="128" height="83.2" fill="black"/>
<rect x="40" y="6" width="26" height="5" fill="#D9D9D9"/>
<rect x="40" y="15" width="65" height="31" fill="#D9D9D9"/>
<line x1="40" y1="50.5" x2="81" y2="50.5" stroke="#D9D9D9"/>
<line x1="40" y1="54.5" x2="73" y2="54.5" stroke="#D9D9D9"/>
<line x1="40" y1="58.5" x2="79" y2="58.5" stroke="#D9D9D9"/>
<line x1="40" y1="62.5" x2="87" y2="62.5" stroke="#D9D9D9"/>
<line x1="40" y1="66.5" x2="83" y2="66.5" stroke="#D9D9D9"/>
<line x1="40" y1="70.5" x2="73" y2="70.5" stroke="#D9D9D9"/>
<line x1="40" y1="74.5" x2="87" y2="74.5" stroke="#D9D9D9"/>
<rect x="4.5" y="5.5" width="31" height="73" stroke="#D9D9D9"/>
<line x1="7.98442" y1="17.25" x2="25.0037" y2="17.25" stroke="#D9D9D9"/>
<line x1="7.98442" y1="53.25" x2="25.0037" y2="53.25" stroke="#D9D9D9"/>
<line x1="9.98442" y1="20.25" x2="27.0037" y2="20.25" stroke="#D9D9D9"/>
<line x1="9.98442" y1="56.25" x2="27.0037" y2="56.25" stroke="#D9D9D9"/>
<line x1="9.98442" y1="23.25" x2="27.0037" y2="23.25" stroke="#D9D9D9"/>
<line x1="9.98442" y1="59.25" x2="27.0037" y2="59.25" stroke="#D9D9D9"/>
<line x1="9.98442" y1="26.25" x2="27.0037" y2="26.25" stroke="#D9D9D9"/>
<line x1="9.98442" y1="62.25" x2="27.0037" y2="62.25" stroke="#D9D9D9"/>
<line x1="7.98442" y1="29.25" x2="25.0037" y2="29.25" stroke="#D9D9D9"/>
<line x1="7.98442" y1="65.25" x2="25.0037" y2="65.25" stroke="#D9D9D9"/>
<line x1="9.98442" y1="32.25" x2="27.0037" y2="32.25" stroke="#D9D9D9"/>
<line x1="9.98442" y1="68.25" x2="27.0037" y2="68.25" stroke="#D9D9D9"/>
<line x1="11.9844" y1="35.25" x2="29.0037" y2="35.25" stroke="#D9D9D9"/>
<line x1="11.9844" y1="71.25" x2="29.0037" y2="71.25" stroke="#D9D9D9"/>
<line x1="11.9844" y1="38.25" x2="29.0037" y2="38.25" stroke="#D9D9D9"/>
<line x1="11.9844" y1="74.25" x2="29.0037" y2="74.25" stroke="#D9D9D9"/>
<line x1="9.98442" y1="41.25" x2="27.0037" y2="41.25" stroke="#D9D9D9"/>
<line x1="9.98442" y1="44.25" x2="27.0037" y2="44.25" stroke="#D9D9D9"/>
<line x1="7.98442" y1="47.25" x2="25.0037" y2="47.25" stroke="#D9D9D9"/>
<line x1="7.98442" y1="83.25" x2="25.0037" y2="83.25" stroke="#D9D9D9"/>
<line x1="7.98442" y1="50.25" x2="25.0037" y2="50.25" stroke="#D9D9D9"/>
<rect x="8" y="8" width="23" height="6" fill="#D9D9D9"/>
<line x1="124.5" y1="11" x2="124.5" y2="37" stroke="#D9D9D9"/>
</g>
<rect x="0.5" y="0.5" width="127" height="82.2" stroke="white"/>
<defs>
<clipPath id="clip0_1_90">
<rect width="128" height="83.2" fill="white"/>
</clipPath>
</defs>
</svg>
